<svg width="117" height="23" xmlns="http://www.w3.org/2000/svg"><path d="M85.9 7.436c3.762 0 6.466 2.744 6.466 6.877 0 .243-.041.482-.199.663a.833.833 0 0 1-.628.286l-5.73-.001c-.25 0-.337-.118-.337-.336v-.234c0-.218.087-.335.337-.335h2.083v-3.892c0-1.29-.862-2.2-2.245-2.2s-2.315.899-2.315 2.203v8.18c.04 1.478.818 2.498 2.315 2.638.12.005.238.018.364.018 3.297 0 4.822-2.212 5.337-2.88.1-.131.275-.16.407-.068l.14.103c.074.052.14.14.155.236a.353.353 0 0 1-.086.259c-.586.767-2.388 3.188-5.953 3.188-4.003 0-7.138-2.57-7.138-7.311 0-4.79 3.087-7.394 7.026-7.394zm-10.752 0c.186 0 .336.152.336.337v13.369c0 .184-.15.335-.336.335h-3.654a.337.337 0 0 1-.337-.335V7.773c0-.185.151-.337.337-.337h3.654zM23.645.198c.265-.14.4-.004.4.218v20.906a.336.336 0 0 1-.337.334h-3.653a.335.335 0 0 1-.337-.334v-18.7c0-.228.073-.376.337-.515l3.59-1.91zM49.75 7.436c.185 0 .336.152.336.337 0 0 .167 2.676.167 6.684v6.685a.337.337 0 0 1-.337.335h-3.714a.336.336 0 0 1-.336-.335V7.773c0-.185.15-.337.336-.337h3.548zm50.065 0c.186 0 .337.152.337.337 0 0 .167 2.676.167 6.684v6.685a.337.337 0 0 1-.337.335h-3.625a.337.337 0 0 1-.338-.335V7.773c0-.185.152-.337.338-.337h3.458zM73.082 1.428c1.255 0 2.356 1.088 2.356 2.326 0 1.24-1.101 2.327-2.356 2.327s-2.353-1.087-2.353-2.327c0-1.238 1.098-2.326 2.353-2.326zm31.115 6.008c1.323 0 2.25.844 2.25 2.051 0 1.134-.874 2.022-1.99 2.022-1.246 0-2.147-1.006-2.412-2.692-.075-.478.012-.675.39-.892a3.574 3.574 0 0 1 1.762-.489zM51.327 9.4c-.21.063-.295-.049-.307-.217-.007-.13-.001.012-.007-.096-.02-.273.058-.339.247-.482.7-.527 1.911-1.169 3.006-1.169 2.999 0 4.213 1.814 4.213 4.602v9.356c0 .166-.15.342-.337.342h-3.628c-.186 0-.336-.176-.336-.342l-.001-10.052c0-1.955-.896-2.538-2.85-1.942zM17.203 21.28c.044.1.033.214-.028.307a.34.34 0 0 1-.282.143h-3.826a.331.331 0 0 1-.31-.197L6.456 6.485a.307.307 0 0 1 0-.245l1.559-4.182a.337.337 0 0 1 .312-.2h.387c.135 0 .256.075.31.194l8.18 19.227zm-7.78-4.837l.11.255c.077.177-.01.327-.196.327H2.77L.958 21.277a.338.338 0 0 1-.311.2H.336a.342.342 0 0 1-.28-.143.316.316 0 0 1-.031-.303L5.589 7.982l.008-.016a.189.189 0 0 1 .167-.1c.071 0 .13.039.162.094l.016.035.189.468c.016.038.046.11.067.17l.014.045c.003.011.007.022.007.034 0 .018-.004.033-.009.048l-.011.032-.027.067c-.044.1-3.03 7.26-3.03 7.26h5.807c.315 0 .397.146.475.324zM117 7.436V8.99l-4.35 1.797 4.35 1.805v1.553h-6.834V12.85h4.183l-4.183-1.731v-.664l4.179-1.722h-4.179V7.436H117zm-6.834 10.989V15.59H117v2.835c0 2.028-1.44 3.502-3.423 3.502-2.01 0-3.412-1.44-3.412-3.502zm3.412 2.176c1.344 0 2.212-.854 2.212-2.176v-1.538h-4.415v1.538c0 1.504 1.107 2.176 2.203 2.176zM58.82 9.391l-.062-.145c-.107-.265.07-.334.344-.544.736-.558 2.288-1.266 3.383-1.266 2.922 0 4.13 1.76 4.13 4.625v9.357c0 .166-.151.342-.336.342h-3.627c-.187 0-.336-.176-.336-.342l-.001-9.932c0-2.18-1.014-2.859-3.133-1.959-.186.08-.301.013-.362-.136zM37.797 21.477a.338.338 0 0 1-.337-.337s-.167-2.677-.167-6.684V7.773c0-.186.152-.337.337-.337h3.714c.186 0 .336.151.336.337V21.14c0 .185-.15.337-.336.337h-3.547zm-1.869-1.705c.21-.063.296.047.307.218.008.129.002-.015.008.095.02.273-.058.338-.248.481-.7.528-2.397 1.17-3.492 1.17-3 0-4.212-1.814-4.212-4.6V7.777c0-.166.15-.342.337-.342h3.628c.184 0 .334.176.334.342l.001 10.052c0 1.955 1.384 2.538 3.337 1.942z" fill="#3F3F41" fill-rule="evenodd"/></svg>