<?xml version="1.0" encoding="utf-8"?>
<!-- Generator: Adobe Illustrator 24.3.0, SVG Export Plug-In . SVG Version: 6.00 Build 0)  -->
<svg version="1.1" id="Layer_1" xmlns="http://www.w3.org/2000/svg" xmlns:xlink="http://www.w3.org/1999/xlink" x="0px" y="0px"
	 viewBox="0 0 100 100" style="enable-background:new 0 0 100 100;" xml:space="preserve">
<style type="text/css">
	.st0{fill:#63c2cd;}
</style>
<g>
	<path class="st0" d="M25.8,98.9h22.8c2.8,0,5.1-2.2,5.1-5c0,0,0-0.1,0-0.1V43c0-1.6-0.7-3.1-2-4.1c1.5-1.6,1.4-4.1-0.2-5.6
		c-0.6-0.6-1.5-1-2.3-1v-7.5c0-1.8-1.2-3.4-3-3.8v-4.7c0-0.7-0.5-1.2-1.2-1.2h-1v-1h2.9c0.7,0,1.2-0.5,1.3-1.2V8.9
		c0-0.7-0.6-1.2-1.3-1.2h-2.9V7.2c0-2-1.4-3.8-3.3-4.3l-7.2-1.8c-1.3-0.3-2.6,0.4-2.9,1.7c0,0.2-0.1,0.4-0.1,0.6V15h-1
		c-0.7,0-1.2,0.6-1.2,1.2V21c-1.8,0.4-3,2-3,3.8v7.5c-2.2,0.2-3.8,2.1-3.6,4.2c0.1,0.9,0.4,1.7,1,2.3c-1.3,1-2,2.5-2,4.1v50.9
		C20.6,96.7,22.9,98.9,25.8,98.9C25.7,98.9,25.7,98.9,25.8,98.9z M43.9,10h1.8v1.6h-1.8V10z M40,5.2c0.9,0.2,1.5,1.1,1.5,2V15h-8.7
		l0-11.7L40,5.2z M30.6,17.4h13.1v3.4H30.6V17.4z M27.6,24.8c0-0.9,0.7-1.6,1.6-1.6h16c0.9,0,1.6,0.8,1.6,1.6v7.5H27.6V24.8z
		 M25.6,34.7h23.1c0.9,0,1.6,0.7,1.6,1.5c0,0,0,0,0,0c0,0.4-0.2,0.8-0.5,1c-0.3,0.3-0.7,0.4-1.1,0.4H25.6c-0.8,0-1.5-0.6-1.6-1.4
		c0-0.8,0.6-1.5,1.4-1.6C25.5,34.7,25.5,34.7,25.6,34.7z M51.3,93.9c0,1.5-1.2,2.7-2.6,2.7c0,0-0.1,0-0.1,0H25.8
		c-1.5,0-2.7-1.1-2.7-2.6c0,0,0-0.1,0-0.1V43c0-1.5,1.2-2.7,2.7-2.7c0,0,0.1,0,0.1,0h22.7c1.5,0,2.7,1.1,2.8,2.6c0,0,0,0.1,0,0.1
		V93.9z"/>
	<path class="st0" d="M27,52.8c0.7,0,1.2-0.5,1.2-1.2v-2.4c0-0.7-0.5-1.2-1.2-1.2c-0.7,0-1.2,0.5-1.2,1.2v2.4
		C25.8,52.3,26.3,52.8,27,52.8z"/>
	<path class="st0" d="M27,82.9c0.7,0,1.2-0.5,1.2-1.2V56c0-0.7-0.5-1.2-1.2-1.2c-0.7,0-1.2,0.5-1.2,1.2v25.7
		C25.8,82.4,26.3,82.9,27,82.9z"/>
	<g id="Outlines">
		<g>
			<path class="st0" d="M64.1,52h8.2v2.6l-8.2-1.2V52z M64.1,55.5l8.2,1.2V59l-8.2-1.4V55.5z M64.1,62.3v-2.6l8.2,1.4v1.2H64.1z
				 M74.4,57l0.9,0.1c0.6,0.1,1.1-0.3,1.2-0.9c0.1-0.6-0.3-1.1-0.9-1.2l-1.2-0.2l0-4c0-0.6-0.5-1-1-1H63c-0.6,0-1,0.5-1,1v2.2
				L61.1,53c-0.6-0.1-1.1,0.3-1.2,0.9c-0.1,0.6,0.3,1.1,0.9,1.2l1.2,0.2v2.1l-0.9-0.1c-0.6-0.1-1.1,0.3-1.2,0.8
				c-0.1,0.6,0.3,1.1,0.8,1.2c0,0,0,0,0.1,0l1.2,0.2v2.9h-1c-2.8,0-5.1,2.3-5.1,5.1v14.4c0,0.6,0.5,1,1,1s1-0.5,1-1V67.4
				c0-1.7,1.4-3.1,3.1-3.1h14.4h0c1.7,0,3.1,1.4,3.1,3.1l0,20.1c0,0.6,0.5,1,1,1s1-0.5,1-1l0-20.1c0-2.8-2.3-5.1-5.1-5.1h0h-1
				L74.4,57z"/>
			<path class="st0" d="M79.5,90.6c-0.6,0-1,0.5-1,1v2.1c0,1.7-1.4,3.1-3.1,3.1H61c-1.7,0-3.1-1.4-3.1-3.1v-7.7c0-0.6-0.5-1-1-1
				s-1,0.5-1,1v7.7c0,2.8,2.3,5.1,5.1,5.1h14.4c2.8,0,5.1-2.3,5.1-5.1v-2.1C80.5,91,80.1,90.6,79.5,90.6z"/>
		</g>
	</g>
	<g id="Outlines_1_">
		<g>
			<path class="st0" d="M78.6,49.6c1.1-0.4,2.2,0.2,2.6,1.2l1.1,3.1c0.1,0.3,0.1,0.5,0,0.8c-0.7,1.5-0.1,3.4,1.5,4.1c0,0,0,0,0,0
				c0.2,0.1,0.4,0.3,0.5,0.6l1.5,4.2c-1.3,0.4-2.6,0.8-3.9,1.3l-1.5-4c-0.1-0.3-0.1-0.5,0-0.8c0.7-1.5,0.1-3.4-1.5-4.1c0,0,0,0,0,0
				c-0.2-0.1-0.4-0.3-0.5-0.6l-1.1-3.1C77,51.2,77.5,50,78.6,49.6z M76.6,56c0.3,0.8,0.9,1.4,1.6,1.7c0.5,0.2,0.7,0.9,0.5,1.4
				c0,0,0,0,0,0c-0.2,0.4-0.3,0.8-0.3,1.2c0,0.1,0,0.1,0,0.2c0,0.4,0.1,0.7,0.2,1.1l2.1,5.6l2.8,7.5l-2.9,1.1
				c-0.5,0.2-0.8,0.8-0.6,1.3l4.2,11.6c0.1,0.4,0.5,0.7,1,0.7c0.1,0,0.2,0,0.4-0.1l1.3-0.5c1.9,1.9,3.3,4.2,4.2,6.6l0.2,0.5
				c0.8,2.1,3.1,3.3,5.2,2.5c2.1-0.8,3.3-3.1,2.5-5.2c0,0,0-0.1,0-0.1l-0.2-0.5c-0.9-2.5-1.3-5.2-1-7.8l1.3-0.5
				c0.5-0.2,0.8-0.8,0.6-1.3c0,0,0,0,0,0l0,0l-4.2-11.6c-0.2-0.5-0.8-0.8-1.3-0.6c0,0,0,0,0,0l-8.7,3.2l-2.7-7.3
				c1.3-0.5,2.6-0.9,3.9-1.3l1.7,4.6c0.2,0.5,0.8,0.8,1.3,0.6c0.5-0.2,0.8-0.8,0.6-1.3L86.4,59c-0.3-0.8-1-1.7-1.7-2.1
				c-0.5-0.2-0.7-0.9-0.5-1.4c0,0,0,0,0,0c0.3-0.7,0.4-1.6,0.1-2.4l-1.1-3.1c-0.8-2.1-3.2-3.2-5.3-2.4c-1.8,0.7-2.9,2.5-2.6,4.5
				L76.6,56z M82.2,77.4l11.6-4.2l3.5,9.7l-11.6,4.2L82.2,77.4z M96.8,93.4l0.2,0.5c0.4,1.1-0.2,2.2-1.2,2.6c0,0,0,0,0,0
				c-1.1,0.4-2.2-0.2-2.6-1.2c0,0,0,0,0,0l-0.2-0.5c-0.9-2.5-2.3-4.8-4-6.7l6.7-2.4C95.5,88.3,95.9,90.9,96.8,93.4z"/>
		</g>
	</g>
	<path class="st0" d="M24.2,27.7c0-0.7-0.5-1.2-1.2-1.2H1.3c-0.7,0-1.2,0.5-1.2,1.2v4.8c0,0,0,0,0,0.1c0,0,0,0,0,0.1l4.8,48.3v14.4
		c0,2,1.6,3.6,3.6,3.6h7.2c2,0,3.6-1.6,3.6-3.6V80.9l4.8-48.3c0,0,0,0,0-0.1c0,0,0,0,0-0.1V27.7z M2.5,28.9h19.3v2.4H2.5V28.9z
		 M17,95.4c0,0.7-0.5,1.2-1.2,1.2H8.5c-0.7,0-1.2-0.5-1.2-1.2V82.1H17V95.4z M17.1,79.7H7.2L2.6,33.8h19.1L17.1,79.7z"/>
</g>
</svg>
