<?xml version="1.0" encoding="utf-8"?>
<!-- Generator: Adobe Illustrator 24.3.0, SVG Export Plug-In . SVG Version: 6.00 Build 0)  -->
<svg version="1.1" id="Layer_1" xmlns="http://www.w3.org/2000/svg" xmlns:xlink="http://www.w3.org/1999/xlink" x="0px" y="0px"
	 viewBox="0 0 100 100" style="enable-background:new 0 0 100 100;" xml:space="preserve">
<style type="text/css">
	.st0{fill:#63c2cd;}
</style>
<g>
	<path class="st0" d="M76.9,65.6c-3.1,1.3-4.6,4.8-3.4,8c1.3,3.1,4.8,4.6,8,3.4c3.1-1.3,4.6-4.8,3.4-8c-0.6-1.5-1.8-2.7-3.3-3.3
		C80.1,64.9,78.4,64.9,76.9,65.6z M82.7,69.8c0.8,1.9-0.1,4.1-2.1,4.9c-1.9,0.8-4.1-0.1-4.9-2.1c-0.8-1.9,0.1-4.1,2.1-4.9
		c0.9-0.4,2-0.4,2.9,0C81.6,68.1,82.3,68.9,82.7,69.8L82.7,69.8z"/>
	<path class="st0" d="M13,49.4c-0.8-3-3.9-4.8-6.9-4c-3,0.8-4.8,3.9-4,6.9c0.8,3,3.9,4.8,6.9,4c0,0,0,0,0,0
		C12,55.5,13.8,52.4,13,49.4z M8.4,54c-1.8,0.5-3.5-0.6-4-2.3c-0.5-1.8,0.6-3.5,2.3-4s3.5,0.6,4,2.3c0,0,0,0,0,0
		C11.2,51.8,10.2,53.5,8.4,54C8.4,54,8.4,54,8.4,54z"/>
	<path class="st0" d="M96.1,51.8c-0.9-2.2-3.4-3.2-5.5-2.3c-2.2,0.9-3.2,3.4-2.3,5.5s3.4,3.2,5.5,2.3c1-0.4,1.9-1.2,2.3-2.3
		C96.5,54,96.5,52.9,96.1,51.8z M93.9,54.1c-0.4,1-1.5,1.4-2.4,1c-1-0.4-1.4-1.5-1-2.4c0.4-1,1.5-1.4,2.4-1c0.5,0.2,0.8,0.6,1,1
		C94.1,53.2,94.1,53.7,93.9,54.1L93.9,54.1z"/>
	<path class="st0" d="M8.7,38.2c2.3,0,4.2-1.9,4.2-4.2c0-2.3-1.9-4.2-4.2-4.2c-2.3,0-4.2,1.9-4.2,4.2c0,0.4,0,0.7,0.1,1.1
		C5.1,36.9,6.7,38.2,8.7,38.2z M8.2,32.1c1-0.3,2,0.3,2.3,1.3c0,0,0,0,0,0c0.3,1-0.3,2-1.3,2.3c-1,0.3-2-0.3-2.3-1.3
		C6.6,33.4,7.2,32.4,8.2,32.1z"/>
	<path class="st0" d="M17.8,77.9c0.5,0.3,1.2,0.5,1.8,0.5c2,0,3.6-1.6,3.6-3.6c0-0.3,0-0.6-0.1-0.9c-0.5-1.9-2.5-3-4.4-2.5
		c-1.9,0.5-3,2.5-2.5,4.4C16.3,76.6,16.9,77.4,17.8,77.9L17.8,77.9z M18.5,74.2c0.2-0.3,0.4-0.5,0.7-0.6c0.1,0,0.2,0,0.3,0
		c0.7,0,1.2,0.5,1.2,1.2c0,0.7-0.5,1.2-1.2,1.2c-0.7,0-1.2-0.5-1.2-1.2C18.3,74.6,18.4,74.4,18.5,74.2L18.5,74.2z"/>
	<path class="st0" d="M89.6,31.4c2.1,0.9,4.5-0.1,5.4-2.2c0.9-2.1-0.1-4.5-2.2-5.4c-2.1-0.9-4.5,0.1-5.4,2.2
		C86.5,28.1,87.5,30.6,89.6,31.4z M89.6,26.9c0.2-0.4,0.5-0.8,1-1c0.2-0.1,0.4-0.1,0.7-0.1c1,0,1.8,0.8,1.8,1.8s-0.8,1.8-1.8,1.8
		c-1,0-1.8-0.8-1.8-1.8C89.4,27.4,89.5,27.2,89.6,26.9z"/>
	<path class="st0" d="M49.7,55.1c1.1,0,2.1-0.5,2.9-1.2c0.5-0.4,0.6-1.2,0.2-1.7c-0.4-0.5-1.2-0.6-1.7-0.2c0,0,0,0,0,0
		c-0.7,0.8-1.8,0.9-2.6,0.2c-0.1-0.1-0.2-0.1-0.2-0.2c-0.5-0.4-1.2-0.4-1.7,0.1c-0.4,0.5-0.4,1.2,0.1,1.7c0,0,0,0,0,0
		C47.6,54.6,48.6,55,49.7,55.1z"/>
	<path class="st0" d="M55.4,59.1L55.4,59.1c-0.9,0.2-1.8,0.2-2.7,0.1c-0.2,0-0.4-0.1-0.7-0.1c-0.4-0.1-0.7-0.1-1.1-0.1
		c-0.4,0.1-0.8,0.2-1.1,0.4c-0.1,0-0.1,0-0.2,0c-0.3-0.2-0.7-0.4-1.1-0.4c-0.4,0-0.8,0-1.1,0.1c-0.3,0-0.5,0.1-0.7,0.1
		c-0.9,0.1-1.8,0.1-2.7-0.1h0c-0.5-0.1-0.9,0.2-1,0.7c-0.1,0.4,0.1,0.8,0.5,0.9c1.1,0.5,2.2,0.7,3.3,0.6c0.3,0,0.6,0,0.8-0.1
		c0.2,0,0.3,0,0.7,0.2c0.4,0.2,0.8,0.4,1.3,0.4h0.2c0.4,0,0.9-0.1,1.3-0.4c0.3-0.2,0.4-0.2,0.7-0.2c0.2,0,0.5,0,0.8,0.1
		c1.1,0,2.3-0.2,3.3-0.6c0.4-0.2,0.6-0.7,0.4-1.1C56.2,59.2,55.8,59,55.4,59.1L55.4,59.1z"/>
	<path class="st0" d="M50.4,63.2c-0.4,0.2-1,0.2-1.4,0c-0.6-0.3-1.3,0-1.5,0.6c-0.2,0.6,0,1.2,0.5,1.5c1.1,0.5,2.4,0.5,3.5,0
		c0.6-0.3,0.9-0.9,0.6-1.5c-0.3-0.6-0.9-0.9-1.5-0.6C50.5,63.2,50.5,63.2,50.4,63.2L50.4,63.2z"/>
	<path class="st0" d="M63.6,46.1l0.3-0.2c0.1-0.1,0.1-0.1,0.2-0.2c0.2-0.2,0.5-0.3,0.7-0.4c0.2-0.1,0.5-0.2,0.7-0.1l0.2,0
		c0.3,0,0.6-0.2,0.6-0.5c0-0.1,0-0.2-0.1-0.3c-0.3-0.5-0.9-0.9-1.5-0.9c-0.6,0-1.1,0.1-1.6,0.3l-0.3,0.1l-0.2,0.1
		c-0.2,0.1-0.3,0.1-0.5,0.2c-0.3,0.1-0.7,0.3-1,0.4c-0.7,0.2-1.4,0.4-2.1,0.4c-0.6,0.1-1.3,0-1.9-0.2l-0.1,0
		c-0.4-0.1-0.9,0.1-1.1,0.5c-0.1,0.3,0,0.7,0.3,0.9c0.8,0.6,1.8,1,2.8,1c0.9,0,1.9-0.1,2.8-0.4c0.4-0.1,0.9-0.3,1.3-0.5
		C63.2,46.3,63.4,46.2,63.6,46.1L63.6,46.1z"/>
	<path class="st0" d="M43.6,45.4c-0.1-0.4-0.6-0.7-1.1-0.5l-0.1,0c-0.6,0.2-1.3,0.2-1.9,0.2c-0.7-0.1-1.4-0.2-2.1-0.4
		c-0.3-0.1-0.7-0.2-1-0.4c-0.2-0.1-0.3-0.1-0.5-0.2l-0.3-0.1l-0.3-0.1c-0.5-0.2-1.1-0.3-1.6-0.3c-0.6,0-1.2,0.4-1.5,0.9
		c-0.1,0.1-0.1,0.2-0.1,0.3c0,0.3,0.3,0.5,0.6,0.5l0.2,0c0.3,0,0.5,0,0.7,0.1c0.3,0.1,0.5,0.2,0.7,0.4c0.1,0.1,0.1,0.1,0.2,0.2
		l0.3,0.2c0.2,0.1,0.4,0.2,0.6,0.3c0.4,0.2,0.8,0.4,1.3,0.5c0.9,0.3,1.8,0.4,2.8,0.4c1,0,2-0.4,2.8-1C43.6,46.1,43.7,45.7,43.6,45.4
		L43.6,45.4z"/>
	<path class="st0" d="M81.4,90c-2.5-2.3-7-3.8-11.4-5.2c-2.3-0.7-4.6-1.5-6.8-2.6c-4.5-2.3-4.7-6.4-4.9-9.5c0-0.1,0-0.1,0-0.2
		c2.2-1.3,4.3-2.9,6.1-4.8c2.6-2.6,4.5-5.8,5.6-9.3c3.9-0.1,7.8-4.2,8.4-8c0.1-0.4,0.1-0.8,0.1-1.2c0.7-0.3,1.3-0.8,1.7-1.4
		c1.4-2.3,0.6-5-0.2-7.9l-0.1-0.2c1.7-6.2,1.1-19.3-5.7-28.7C69.3,4.4,57.8-2.5,49.7,0.9c-8.1-3.4-19.6,3.5-24.4,10.2
		c-6.8,9.4-7.5,22.5-5.7,28.7l-0.1,0.2c-0.8,2.9-1.6,5.7-0.2,7.9c0.4,0.6,1,1.1,1.7,1.4c0,0.4,0.1,0.8,0.1,1.2
		c0.6,3.7,4.5,7.8,8.4,8c1.1,3.5,3,6.7,5.6,9.3c1.8,1.8,3.9,3.4,6.1,4.8c0,0.1,0,0.1,0,0.2c-0.2,3-0.4,7.2-4.9,9.5
		c-2.2,1-4.5,1.9-6.8,2.6C25,86.3,20.5,87.8,18,90c-2.5,2.3-4.4,5.2-5.6,8.3c-0.2,0.6,0,1.3,0.6,1.5c0.6,0.2,1.3,0,1.5-0.6
		c1.1-2.8,2.8-5.4,5-7.5c2.1-1.9,6.6-3.4,10.5-4.7c2.4-0.7,4.8-1.6,7.2-2.7c5.2-2.6,5.9-7.4,6.1-10.6c1.6,0.7,3.2,1.2,4.9,1.6
		c0.9,0.2,1.9,0.2,2.8,0c1.7-0.4,3.3-0.9,4.9-1.6c0.2,3.2,0.9,8,6.1,10.6c2.3,1.1,4.7,2,7.2,2.7c3.9,1.3,8.4,2.8,10.5,4.7
		c2.2,2.1,3.9,4.6,5,7.5c0.2,0.6,0.9,0.9,1.5,0.6c0.6-0.2,0.9-0.9,0.6-1.5C85.7,95.2,83.8,92.4,81.4,90L81.4,90z M73.5,47.6
		c-0.1,0-0.1,0-0.2,0c-0.4,0-0.8,0-1.2,0.1c0-0.4,0.1-0.8,0.1-1.2C72.6,46.9,73,47.3,73.5,47.6z M70.7,56.1c0.5-1.7,0.8-3.5,1-5.3
		c0.5-0.9,1.1-0.9,1.3-0.8c0.6,0.1,1.2-0.4,1.3-1.1c0-0.2,0-0.4-0.1-0.6c0.3,0.2,0.5,0.4,0.8,0.6c0.3,0.2,0.7,0.4,1.1,0.6
		c0,0.3,0,0.5-0.1,0.8C75.6,52.6,73.1,55.5,70.7,56.1L70.7,56.1z M72.2,12.5c5.4,7.5,6.7,17.9,5.9,24.4c-0.5-0.7-1-1.3-1.6-1.8
		c-0.5-0.4-1.2-0.4-1.7,0.1c-0.4,0.5-0.4,1.2,0.1,1.6c1.1,1,2,2.2,2.7,3.6c0.6,1.5,1.4,5,0.6,6.4c-0.2,0.3-0.5,0.5-0.9,0.5
		c-0.3,0-0.6-0.1-0.8-0.3c-0.9-0.7-2.4-1.9-4.6-3.9c-2.2-2-4.7-4.4-7.3-7.2c-4-4.1-8.4-9-13.3-14.6c2.2-3.3,0.6-6.7-0.7-9.5
		c-0.6-1.1-1.1-2.4-1.3-3.7c-0.1-1.6,0.8-3.9,1.4-5C57.4,0.2,68,6.7,72.2,12.5L72.2,12.5z M21.8,40.4c0.7-1.3,1.6-2.5,2.7-3.5
		c0.5-0.5,0.5-1.2,0-1.7c-0.4-0.4-1.1-0.5-1.6-0.1c-0.6,0.6-1.1,1.2-1.6,1.8c-0.9-6.4,0.5-16.9,5.9-24.4C30.7,7.7,38.6,2.4,45.1,2.4
		c1,0,2.1,0.1,3,0.5c-0.8,1.7-1.2,3.5-1.3,5.4c0.2,1.6,0.7,3.2,1.5,4.6c1.5,3.3,2.4,5.6,0.4,7.8l0,0c-5.1,5.9-9.8,11-13.9,15.3
		c-2.7,2.8-5.2,5.2-7.3,7.2c-2.2,2.1-3.7,3.3-4.6,3.9c-0.2,0.2-0.5,0.3-0.8,0.3c-0.4,0-0.7-0.2-0.9-0.5
		C20.4,45.4,21.2,41.8,21.8,40.4L21.8,40.4z M27.3,46.5c0,0.4,0,0.8,0.1,1.2c-0.4-0.1-0.8-0.1-1.2-0.1c-0.1,0-0.1,0-0.2,0
		C26.4,47.3,26.8,46.9,27.3,46.5z M23.4,50.2c0-0.3-0.1-0.5-0.1-0.8c0.4-0.1,0.7-0.3,1.1-0.6c0.2-0.2,0.5-0.4,0.8-0.6
		c-0.3,0.6,0,1.3,0.5,1.6c0.2,0.1,0.4,0.1,0.6,0.1c0.2,0,0.8-0.1,1.3,0.8c0.2,1.8,0.6,3.5,1,5.3C26.3,55.5,23.8,52.6,23.4,50.2
		L23.4,50.2z M50.6,73.1c-0.6,0.1-1.2,0.1-1.7,0c-5.7-1.3-9.2-4.1-12.1-6.9c-2.4-2.5-4.2-5.7-5.2-9c0,0,0-0.1,0-0.1
		c-0.7-2.2-1.2-4.4-1.5-6.7c-0.2-1.9-0.4-3.9-0.4-5.8c2.1-1.9,4.4-4.2,6.9-6.8c2.2,0,4.4,0.1,6.5,0.4l0,0c0.5,0.1,1-0.2,1.1-0.7
		c0.1-0.4-0.1-0.8-0.5-1c-1-0.5-2.2-0.8-3.3-0.9c-0.5-0.1-1.1-0.1-1.7-0.1c3.4-3.6,7.1-7.7,11-12.2c4,4.6,7.7,8.7,11,12.2
		c-0.6,0-1.1,0-1.7,0.1c-1.1,0.1-2.2,0.4-3.3,0.9c-0.5,0.2-0.7,0.8-0.5,1.2c0.2,0.4,0.6,0.6,1,0.5l0,0c2.2-0.3,4.4-0.4,6.5-0.4
		c2.5,2.6,4.8,4.9,6.9,6.8c0,1.9-0.2,3.9-0.4,5.8c-0.3,2.2-0.8,4.5-1.4,6.6c0,0.1-0.1,0.2-0.1,0.3c-1,3.4-2.8,6.5-5.2,9
		C59.7,69,56.2,71.8,50.6,73.1L50.6,73.1z"/>
	<path class="st0" d="M26.2,27.7c0.4,0,0.7-0.2,0.9-0.4c0.1-0.1,9.9-11.8,17.5-11.8c0.7,0,1.2-0.5,1.2-1.2s-0.5-1.2-1.2-1.2
		c-8.8,0-18.9,12.2-19.3,12.7c-0.4,0.5-0.3,1.2,0.2,1.7C25.7,27.6,26,27.7,26.2,27.7L26.2,27.7z"/>
	<path class="st0" d="M54.7,15.5c7.7,0,17.4,11.7,17.5,11.8c0.4,0.5,1.2,0.6,1.7,0.2c0.5-0.4,0.6-1.2,0.2-1.7
		c-0.4-0.5-10.6-12.7-19.3-12.7c-0.7,0-1.2,0.5-1.2,1.2S54.1,15.5,54.7,15.5L54.7,15.5z"/>
</g>
</svg>
