<?xml version="1.0" encoding="utf-8"?>
<!-- Generator: Adobe Illustrator 24.3.0, SVG Export Plug-In . SVG Version: 6.00 Build 0)  -->
<svg version="1.1" id="Layer_1" xmlns="http://www.w3.org/2000/svg" xmlns:xlink="http://www.w3.org/1999/xlink" x="0px" y="0px"
	 viewBox="0 0 100 100" style="enable-background:new 0 0 100 100;" xml:space="preserve">
<style type="text/css">
	.st0{fill:#63c2cd;}
</style>
<g>
	<g>
		<g>
			<path class="st0" d="M41.8,6.7c-19.3,0-35,15.7-35,35s15.7,35,35,35s35-15.7,35-35C76.7,22.3,61.1,6.7,41.8,6.7z M41.8,10
				c10.3,0,19.9,5,25.9,13.4l-4.2,4.2c-1-0.6-2.2-0.9-3.4-0.9c-3.7,0-6.7,3-6.7,6.7c0,1.2,0.3,2.3,0.9,3.4L43.5,47.6
				c-2.1-1.3-4.7-1.3-6.7,0L29.2,40c0.6-1,0.9-2.2,0.9-3.4c0-3.7-3-6.7-6.6-6.7c-3,0-5.7,2.1-6.5,5h-6.2C14,20.4,26.9,10,41.8,10z
				 M63.4,33.3c0,1.8-1.5,3.3-3.3,3.3s-3.3-1.5-3.3-3.3c0-1.8,1.5-3.3,3.3-3.3S63.4,31.5,63.4,33.3z M43.4,53.3
				c0,1.8-1.5,3.3-3.3,3.3s-3.3-1.5-3.3-3.3s1.5-3.3,3.3-3.3S43.4,51.5,43.4,53.3z M26.8,36.7c0,1.8-1.5,3.3-3.3,3.3
				s-3.3-1.5-3.3-3.3s1.5-3.3,3.3-3.3S26.8,34.8,26.8,36.7z M57.1,69.4c-4.7,2.6-10,4-15.4,4c-17.5,0-31.7-14.1-31.7-31.6
				c0-1.1,0.1-2.3,0.2-3.4H17c0.8,2.9,3.4,5,6.4,5c1.2,0,2.3-0.3,3.4-0.9l7.6,7.6c-0.6,1-0.9,2.2-0.9,3.4c0,3.7,3,6.7,6.7,6.7
				c3.7,0,6.7-3,6.7-6.7c0-1.2-0.3-2.3-0.9-3.4l10.9-10.9c1,0.6,2.2,0.9,3.4,0.9c3.7,0,6.7-3,6.7-6.7c0-1.2-0.3-2.3-0.9-3.4l3.6-3.6
				C77.9,41.6,72.4,60.9,57.1,69.4z"/>
		</g>
	</g>
	<g>
		<g>
			<path class="st0" d="M83.4,16.7c3,0,5.7-2.1,6.4-5h10.2V8.3H89.9c-0.8-2.9-3.4-5-6.4-5c-3.7,0-6.7,3-6.7,6.7
				c0,1.2,0.3,2.3,0.9,3.4l-2.9,2.9C60.8-2,34.6-5.4,16.4,8.6S-5.3,48.8,8.7,67c13.2,17.2,37.5,21.4,55.7,9.6l5,5l2.4,2.4l13.4,13.4
				c3.4,3.4,8.9,3.4,12.4,0c3.4-3.4,3.4-8.9,0-12.4L84.1,71.7l-2.4-2.4l-5-5c8.9-13.8,8.9-31.5,0-45.2l3.3-3.3
				C81.1,16.3,82.2,16.7,83.4,16.7z M83.4,6.7c1.8,0,3.3,1.5,3.3,3.3s-1.5,3.3-3.3,3.3s-3.3-1.5-3.3-3.3S81.6,6.7,83.4,6.7z
				 M95.2,87.4c2.1,2.1,2.2,5.5,0.1,7.6c-2.1,2.1-5.5,2.2-7.6,0.1c0,0-0.1-0.1-0.1-0.1L74.1,81.7l7.6-7.6L95.2,87.4z M79.4,71.7
				l-7.6,7.6l-4.6-4.6c0.2-0.2,0.5-0.4,0.7-0.6c0.2-0.2,0.5-0.4,0.7-0.6c0.4-0.3,0.7-0.6,1.1-0.9c0.2-0.2,0.4-0.3,0.5-0.5
				c0.7-0.6,1.3-1.3,2-2c0.2-0.2,0.3-0.4,0.5-0.5c0.3-0.4,0.6-0.7,0.9-1.1c0.2-0.2,0.4-0.5,0.6-0.7c0.2-0.2,0.4-0.4,0.6-0.7
				L79.4,71.7z M72.9,63.9c-0.5,0.7-1.1,1.5-1.6,2.1c-0.2,0.2-0.3,0.4-0.5,0.6c-0.5,0.6-1,1.2-1.6,1.7c-0.2,0.2-0.5,0.5-0.7,0.7
				c-0.6,0.5-1.1,1.1-1.7,1.6c-0.2,0.2-0.4,0.3-0.6,0.5c-0.7,0.6-1.4,1.1-2.1,1.6c-17.3,12.3-41.2,8.3-53.6-8.9s-8.3-41.2,8.9-53.6
				S60.6,2,72.9,19.3C82.5,32.6,82.5,50.6,72.9,63.9z"/>
		</g>
	</g>
</g>
</svg>
