<?xml version="1.0" encoding="utf-8"?>
<!-- Generator: Adobe Illustrator 24.3.0, SVG Export Plug-In . SVG Version: 6.00 Build 0)  -->
<svg version="1.1" id="Layer_1" xmlns="http://www.w3.org/2000/svg" xmlns:xlink="http://www.w3.org/1999/xlink" x="0px" y="0px"
	 viewBox="0 0 100 100" style="enable-background:new 0 0 100 100;" xml:space="preserve">
<style type="text/css">
	.st0{fill:#63c2cd;}
</style>
<g>
	<g>
		<g>
			<path class="st0" d="M33.3,0c-13.8,0-25,11.2-25,25v18.3C8.4,49.8,13.6,55,20,55h1.7v-3.3H20c-4.6,0-8.3-3.7-8.3-8.3V25
				c0-12,9.7-21.7,21.7-21.7S55,13,55,25v18.3c0,4.6-3.7,8.3-8.3,8.3H45V55h1.7c6.4,0,11.7-5.2,11.7-11.7V25
				C58.3,11.2,47.2,0,33.3,0z"/>
		</g>
	</g>
	<g>
		<g>
			<path class="st0" d="M13.7,78.5l1.2-1.9l-2.8-1.8l-1.2,1.9C7.2,82.6,7.5,90,11.6,95.6v4.4H15v-5c0-0.4-0.1-0.7-0.4-1
				C11,89.5,10.7,83.3,13.7,78.5z"/>
		</g>
	</g>
	<g>
		<g>
			<path class="st0" d="M91.7,0H70c-4.6,0-8.3,3.7-8.3,8.3V25c0,4.6,3.7,8.3,8.3,8.3h3.3V40c0,0.7,0.4,1.3,1,1.5
				c0.2,0.1,0.4,0.1,0.6,0.1c0.4,0,0.9-0.2,1.2-0.5l7.8-7.8h7.6c4.6,0,8.3-3.7,8.3-8.3V8.3C100,3.7,96.3,0,91.7,0z M96.7,25
				c0,2.8-2.2,5-5,5h-8.3c-0.4,0-0.9,0.2-1.2,0.5L76.7,36v-4.3c0-0.9-0.7-1.7-1.7-1.7h-5c-2.8,0-5-2.2-5-5V8.3c0-2.8,2.2-5,5-5h21.7
				c2.8,0,5,2.2,5,5V25z"/>
		</g>
	</g>
	<g>
		<g>
			<rect x="70" y="8.3" class="st0" width="11.7" height="3.3"/>
		</g>
	</g>
	<g>
		<g>
			<rect x="85" y="8.3" class="st0" width="6.7" height="3.3"/>
		</g>
	</g>
	<g>
		<g>
			<rect x="70" y="15" class="st0" width="21.7" height="3.3"/>
		</g>
	</g>
	<g>
		<g>
			<rect x="70" y="21.7" class="st0" width="11.7" height="3.3"/>
		</g>
	</g>
	<g>
		<g>
			<path class="st0" d="M55.8,76.8l-1.2-1.9l-2.8,1.8l1.2,1.9c3,4.8,2.7,11-0.8,15.4c-0.2,0.3-0.4,0.7-0.4,1v5h3.3v-4.4
				C59.2,90,59.4,82.6,55.8,76.8z"/>
		</g>
	</g>
	<g>
		<g>
			<path class="st0" d="M98.3,56.7h-15c-6.3,0-11.4,4.9-11.6,11.2l-5,9V70c0-6.4-5.2-11.7-11.7-11.7h-6.1l0,0l0,0H45
				c-1.8,0-3.3-1.5-3.3-3.3v-3.9c5.1-3,8.3-8.5,8.3-14.4V23.3c0-2.8-0.7-5.5-2-7.9c-0.4-0.8-1.4-1.1-2.2-0.7L17.6,28
				c-0.6,0.3-1,0.9-1,1.5v7.2c0,5.9,3.2,11.4,8.3,14.4V55c0,1.8-1.5,3.3-3.3,3.3h-10C5.2,58.3,0,63.6,0,70v30h3.3V70
				c0-4.6,3.7-8.3,8.3-8.3H17l15,21c0.3,0.4,0.8,0.7,1.3,0.7h0c0.5,0,1-0.2,1.3-0.7l15.8-21H55c4.6,0,8.3,3.7,8.3,8.3v13.3
				c0,0.9,0.7,1.7,1.7,1.7c0.6,0,1.2-0.3,1.5-0.9L74.3,70h9.6l-16.2,30h3.8l16.3-30h0.7c6.4,0,11.7-5.2,11.7-11.7
				C100,57.4,99.3,56.7,98.3,56.7z M20,36.7v-6.1l25.7-12.1c0.6,1.6,0.9,3.2,0.9,4.9v13.3c0,7.4-6,13.3-13.3,13.3S20,44,20,36.7z
				 M33.4,78.9l-5.1-7.2h10.6L33.4,78.9z M41.3,68.3H25.8l-4.8-6.7h0.6c3.7,0,6.7-3,6.7-6.7v-2.4c3.3,1,6.7,1,10,0V55
				c0,3.7,3,6.7,6.7,6.7h1.3L41.3,68.3z M88.3,66.7H75.2c0.8-3.9,4.2-6.7,8.2-6.7h13.2C95.7,63.9,92.3,66.7,88.3,66.7z"/>
		</g>
	</g>
</g>
</svg>
