<?xml version="1.0" encoding="utf-8"?>
<!-- Generator: Adobe Illustrator 24.3.0, SVG Export Plug-In . SVG Version: 6.00 Build 0)  -->
<svg version="1.1" id="Layer_1" xmlns="http://www.w3.org/2000/svg" xmlns:xlink="http://www.w3.org/1999/xlink" x="0px" y="0px"
	 viewBox="0 0 100 100" style="enable-background:new 0 0 100 100;" xml:space="preserve">
<style type="text/css">
	.st0{fill:#63c2cd;}
</style>
<g>
	<path class="st0" d="M55.7,39.5c-2.7,0-4.6,1.4-5.7,2.9c-1.2-1.5-3-2.9-5.7-2.9c-4.3,0-7.6,3.6-7.6,8.1c0,4.8,3.8,8.1,9.2,12.6
		c0.9,0.8,1.9,1.6,3,2.5c0.4,0.3,0.8,0.5,1.3,0.5s0.9-0.2,1.3-0.5c1-0.9,2-1.7,3-2.5c4.8-4.1,9.1-7.5,9.1-12.6
		C63.4,43.1,60,39.5,55.7,39.5L55.7,39.5z M51.8,57.3c-0.6,0.5-1.2,1-1.8,1.5c-0.6-0.5-1.2-1-1.7-1.5c-4.9-4.1-7.8-6.6-7.8-9.6
		c0-2.1,1.3-4.3,3.8-4.3c2.8,0,3.8,3.4,3.9,3.6c0.2,0.8,1,1.4,1.8,1.4c0.9,0,1.6-0.6,1.8-1.4c0-0.1,1.1-3.6,3.9-3.6
		c2.5,0,3.8,2.2,3.8,4.3C59.5,51.1,55.3,54.3,51.8,57.3L51.8,57.3z"/>
	<circle class="st0" cx="81.7" cy="87.4" r="1.9"/>
	<path class="st0" d="M98.9,44.3c0-14.1-5-22.8-14.1-31.4c-3.4-3.2-6.6-6.3-8-10.5c-0.3-0.8-1-1.3-1.8-1.3c-1.9,0-25.9,0-30.7,0
		c-14.1,0-22.8,5-31.4,14.1c-3.2,3.4-6.3,6.6-10.5,8c-0.8,0.3-1.3,1-1.3,1.8v30.7c0,14.1,5,22.8,14.1,31.4c3.4,3.2,6.6,6.3,8,10.5
		c0.3,0.8,1,1.3,1.8,1.3h30.7c7.6,0,14.2-1.6,19.9-4.7c0.9-0.5,1.3-1.7,0.7-2.6c-0.5-0.9-1.7-1.3-2.6-0.7
		c-5.2,2.9-11.1,4.3-18.1,4.3h-9.3c0.7-3,3-5.4,6-6.3c2.1-0.6,5.8-1.1,9.7-1.7l0,0c7.6-1.1,11.6-4.8,16.7-10.2
		c0.7-0.8,0.7-2-0.1-2.7c-0.8-0.7-2-0.7-2.7,0.1c-2.4,2.6-5,5.2-8,6.9c-2.2,1.1-4.4,0.3-5.3-1.5c-1-1.9-0.3-4.2,1.6-5.2
		c2-1.1,3.8-3,6.3-5.6c6.9-7.2,15.6-11.3,23.9-11.3h0.6v16.1c-3.5,1.5-6.2,3.9-8.6,6.4c-0.7,0.7-0.7,2,0,2.7c0.7,0.7,2,0.7,2.7,0
		c2.4-2.4,5.1-4.8,8.4-5.9c0.8-0.3,1.3-1,1.3-1.8C98.9,73.1,98.9,49.1,98.9,44.3L98.9,44.3z M4.9,26.3c4.4-1.9,7.6-5.2,10.7-8.5
		c6-6.2,13.6-12.9,28.7-12.9l9.3,0c-0.7,3-3,5.4-6,6.3c-2.1,0.6-5.8,1.1-9.7,1.7l0,0c-2.8,0.4-5.2,1.2-7.5,2.4
		c-3.6,1.9-6.4,4.8-9.2,7.8c-0.7,0.8-0.7,2,0.1,2.7c0.8,0.7,2,0.7,2.7-0.1c2.5-2.6,5.1-5.4,8.3-7c1.8-0.9,4.1-0.2,5.1,1.6
		c1,1.9,0.3,4.2-1.6,5.2c-2,1.1-3.8,3-6.3,5.6c-6.9,7.2-15.6,11.3-23.9,11.3H4.9L4.9,26.3z M42.4,95.1H26.3
		c-1.9-4.4-5.2-7.6-8.5-10.7c-6.2-6-12.9-13.6-12.9-28.7v-9.3c3,0.7,5.4,3,6.3,6c0.6,2.1,1.1,5.8,1.7,9.7
		c1.1,7.7,4.7,11.5,10.2,16.7c0.8,0.7,2,0.7,2.7-0.1c0.7-0.8,0.7-2-0.1-2.7c-2.6-2.5-5.2-5-6.9-8c-1.2-2.2-0.4-4.4,1.4-5.4
		c1.9-1,4.2-0.3,5.2,1.6c1.1,2,3,3.8,5.6,6.3c7.2,6.9,11.3,15.6,11.3,23.9V95.1z M67.8,66.3c-2.2,2.3-3.9,4.1-5.3,4.8
		c-3.7,2-5.1,6.6-3.1,10.3c0.4,0.7,0.9,1.3,1.4,1.9c-3.7,0.5-7.2,1.1-9.4,1.7c-2.3,0.6-4.3,1.9-5.8,3.6c-1.5-7.4-5.6-14.8-12-20.9
		c-2.3-2.2-4-3.9-4.8-5.3c-2-3.7-6.6-5.1-10.3-3.1c-0.7,0.4-1.3,0.9-1.9,1.4c-0.5-3.7-1.1-7.2-1.7-9.4c-0.6-2.3-1.9-4.3-3.6-5.8
		c7.4-1.5,14.8-5.6,20.9-12c2.2-2.3,3.9-4.1,5.3-4.8c3.7-2,5.1-6.6,3.1-10.3c-0.4-0.7-0.9-1.3-1.4-1.9c3.7-0.5,7.2-1.1,9.4-1.7
		c2.3-0.6,4.3-1.9,5.8-3.6c1.5,7.4,5.6,14.8,12,20.9c2.3,2.2,4,3.9,4.8,5.3c2,3.7,6.6,5.1,10.3,3.1c0.7-0.4,1.3-0.9,1.9-1.4
		c0.5,3.7,1.1,7.2,1.7,9.4c0.6,2.3,1.9,4.3,3.6,5.8C81.2,55.9,73.9,60,67.8,66.3z M95.1,53.6c-3-0.7-5.4-3-6.3-6
		c-0.6-2.1-1.1-5.8-1.7-9.7c-1.1-7.6-4.7-11.4-10.2-16.7c-0.8-0.7-2-0.7-2.7,0.1c-0.7,0.8-0.7,2,0.1,2.7c2.7,2.5,5.3,5.1,7.1,8.3
		c0.9,1.8,0.2,4.1-1.6,5.1c-1.9,1-4.2,0.3-5.2-1.6c-1.1-2-3-3.8-5.6-6.3c-7.2-6.9-11.3-15.6-11.3-23.9V4.9h16.1
		c1.9,4.4,5.2,7.6,8.5,10.7c6.2,6,12.9,13.6,12.9,28.7L95.1,53.6z"/>
</g>
</svg>
