<?xml version="1.0" encoding="utf-8"?>
<!-- Generator: Adobe Illustrator 24.3.0, SVG Export Plug-In . SVG Version: 6.00 Build 0)  -->
<svg version="1.1" id="Layer_1" xmlns="http://www.w3.org/2000/svg" xmlns:xlink="http://www.w3.org/1999/xlink" x="0px" y="0px"
	 viewBox="0 0 100 100" style="enable-background:new 0 0 100 100;" xml:space="preserve">
<style type="text/css">
	.st0{fill:#63c2cd;}
</style>
<g>
	<g>
		<path class="st0" d="M45.9,95c-24.8,0-45-20.2-45-45s20.2-45,45-45c8.6,0,17,2.5,24.3,7.1c0.9,0.6,1.2,1.9,0.6,2.8
			c-0.6,0.9-1.9,1.2-2.8,0.6c-6.6-4.2-14.2-6.5-22.1-6.5C23.4,9.1,5,27.4,5,50s18.4,40.9,40.9,40.9S86.8,72.6,86.8,50
			c0-1.3-0.1-2.7-0.2-4c-0.1-1.1,0.7-2.1,1.8-2.2c1.1-0.1,2.1,0.7,2.2,1.8c0.1,1.4,0.2,2.9,0.2,4.4C90.9,74.8,70.7,95,45.9,95
			L45.9,95z"/>
	</g>
	<g>
		<path class="st0" d="M52,59.2c-0.5,0-1-0.2-1.4-0.6L32.2,40.2c-0.8-0.8-0.8-2.1,0-2.9c0.8-0.8,2.1-0.8,2.9,0l17,17l43.6-43.6
			c0.8-0.8,2.1-0.8,2.9,0c0.8,0.8,0.8,2.1,0,2.9l-45,45C53.1,59,52.6,59.2,52,59.2L52,59.2z"/>
	</g>
</g>
</svg>
