<?xml version="1.0" encoding="utf-8"?>
<!-- Generator: Adobe Illustrator 24.2.3, SVG Export Plug-In . SVG Version: 6.00 Build 0)  -->
<svg version="1.1" id="Layer_1" xmlns="http://www.w3.org/2000/svg" xmlns:xlink="http://www.w3.org/1999/xlink" x="0px" y="0px"
	 viewBox="0 0 1200 160" style="enable-background:new 0 0 1200 160;" xml:space="preserve">
<style type="text/css">
	.st0{fill:none;stroke:#5B595A;stroke-width:1.9607;stroke-miterlimit:10;}
	.st1{fill:none;stroke:#5B595A;stroke-width:1.9607;stroke-miterlimit:10;stroke-dasharray:7.8771,7.8771;}
	.st2{fill:#5B595A;}
	.st3{fill:none;stroke:#5B595A;stroke-width:1.9607;stroke-miterlimit:10;stroke-dasharray:7.8426,7.8426;}
	.st4{fill:#63C2CD;}
</style>
<g>
	<g>
		<line class="st0" x1="67" y1="133.5" x2="63.1" y2="133.5"/>
		<path class="st1" d="M55.2,133.5H43c-17.2,0-31.2-14-31.2-31.2v-63C11.7,22,25.7,8,43,8h1119.8c17.2,0,31.2,14,31.2,31.2v63
			c0,17.2-14,31.2-31.2,31.2h-22.7"/>
		<line class="st0" x1="1136.2" y1="133.5" x2="1132.2" y2="133.5"/>
		<g>
			<polygon class="st2" points="65.3,127.6 75.4,133.5 65.3,139.3 			"/>
		</g>
	</g>
</g>
<g>
	<g>
		<line class="st3" x1="230.6" y1="132.5" x2="342.8" y2="132.5"/>
		<g>
			<polygon class="st2" points="341.1,138.4 351.2,132.5 341.1,126.6 			"/>
		</g>
	</g>
</g>
<g>
	<g>
		<line class="st3" x1="526.7" y1="132.5" x2="638.8" y2="132.5"/>
		<g>
			<polygon class="st2" points="637.1,138.4 647.3,132.5 637.1,126.6 			"/>
		</g>
	</g>
</g>
<g>
	<g>
		<line class="st3" x1="822.8" y1="132.5" x2="934.9" y2="132.5"/>
		<g>
			<polygon class="st2" points="933.2,138.4 943.3,132.5 933.2,126.6 			"/>
		</g>
	</g>
</g>
<g>
	<path class="st4" d="M167.6,105.1c0.6,0,1-0.4,1-1c0-0.6-0.4-1-1-1s-1,0.4-1,1C166.6,104.7,167,105.1,167.6,105.1z"/>
	<path class="st4" d="M155.6,116.3c-0.6,0-1,0.4-1,1c0,0.6,0.4,1,1,1s1-0.4,1-1C156.6,116.7,156.2,116.3,155.6,116.3z"/>
	<path class="st4" d="M155.6,122.3c-0.6,0-1,0.4-1,1c0,0.6,0.4,1,1,1s1-0.4,1-1C156.6,122.7,156.2,122.3,155.6,122.3z"/>
	<path class="st4" d="M155.6,128.3c-0.6,0-1,0.4-1,1s0.4,1,1,1s1-0.4,1-1S156.2,128.3,155.6,128.3z"/>
	<path class="st4" d="M155.6,134.2c-0.6,0-1,0.4-1,1s0.4,1,1,1s1-0.4,1-1S156.2,134.2,155.6,134.2z"/>
	<path class="st4" d="M155.6,140.2c-0.6,0-1,0.4-1,1s0.4,1,1,1s1-0.4,1-1S156.2,140.2,155.6,140.2z"/>
	<path class="st4" d="M138.6,118.3h20c0.6,0,1-0.4,1-1s-0.4-1-1-1h-20c-0.6,0-1,0.4-1,1S138.1,118.3,138.6,118.3z"/>
	<path class="st4" d="M138.6,124.3h20c0.6,0,1-0.4,1-1s-0.4-1-1-1h-20c-0.6,0-1,0.4-1,1S138.1,124.3,138.6,124.3z"/>
	<path class="st4" d="M138.6,130.3h20c0.6,0,1-0.4,1-1s-0.4-1-1-1h-20c-0.6,0-1,0.4-1,1S138.1,130.3,138.6,130.3z"/>
	<path class="st4" d="M165.8,137.5l-3.3,3.3l-1.3-1.3c-0.4-0.4-1-0.4-1.4,0c-0.4,0.4-0.4,1,0,1.4l2,2c0.2,0.2,0.5,0.3,0.7,0.3
		c0.3,0,0.5-0.1,0.7-0.3l4-4c0.4-0.4,0.4-1,0-1.4C166.9,137.1,166.2,137.1,165.8,137.5z"/>
	<path class="st4" d="M172.9,140.2c0-4.8-3.4-8.8-8-9.8v-22.4c0-1.7-1.3-3-3-3h-7.2c-0.4-1.2-1.5-2-2.8-2h-1.1c-0.5-2.3-2.5-4-4.9-4
		s-4.4,1.7-4.9,4h-1.1c-1.3,0-2.4,0.8-2.8,2H130c-1.7,0-3,1.3-3,3v39.1c0,1.7,1.3,3,3,3h32.9C168.4,150.2,172.9,145.7,172.9,140.2z
		 M139.9,105.1h2c0.6,0,1-0.4,1-1c0-1.7,1.3-3,3-3s3,1.3,3,3c0,0.6,0.4,1,1,1h2c0.6,0,1,0.4,1,1v1h-14v-1
		C138.9,105.6,139.4,105.1,139.9,105.1z M130,148.2c-0.6,0-1-0.4-1-1v-39.1c0-0.6,0.4-1,1-1h7v1c0,0.6,0.4,1,1,1h16c0.6,0,1-0.4,1-1
		v-1h7c0.6,0,1,0.4,1,1v22.1c-3.2,0-6.1,1.5-8,4h-17c-0.6,0-1,0.4-1,1c0,0.6,0.4,1,1,1h15.8c-0.5,1.3-0.8,2.6-0.8,4h-15
		c-0.6,0-1,0.4-1,1c0,0.6,0.4,1,1,1h15.2c0.5,2.5,1.9,4.6,3.8,6H130z M162.9,148.2c-4.1,0-7.5-3-7.9-7.1c0-0.3,0-0.6,0-0.9
		c0-1.6,0.5-3.1,1.3-4.4c0,0,0,0,0,0c0,0,0,0,0,0c1.5-2.2,4-3.5,6.6-3.5c0.3,0,0.6,0,0.9,0c4,0.4,7.1,3.9,7.1,7.9
		C170.9,144.6,167.3,148.2,162.9,148.2z"/>
</g>
<g>
	<path class="st4" d="M1058.4,113.3c0,0.6-0.5,1-1,1s-1-0.5-1-1s0.5-1,1-1S1058.4,112.7,1058.4,113.3L1058.4,113.3z M1058.4,113.3"
		/>
	<path class="st4" d="M1030.8,129.8v14.5c0,2.3,1.9,4.1,4.1,4.1c2.3,0,4.1-1.9,4.1-4.1v-8.3h1c1.7,0,3.1-1.4,3.1-3.1v-3.2
		c6.2,0.2,12.4,2.3,17.2,5.8v1.5c0,1.7,1.4,3.1,3.1,3.1c1.7,0,3.1-1.4,3.1-3.1v-11.5c2.4-0.5,4.1-2.6,4.1-5.1c0-2.5-1.8-4.6-4.1-5.1
		v-11.5c0-1.7-1.4-3.1-3.1-3.1c-1.7,0-3.1,1.4-3.1,3.1v1.5c-5.5,4-12.9,6.1-20,5.7c-0.1,0-9.2,0-9.2,0c-2.9,0-5.2,2.3-5.2,5.2v8.3
		C1026,127.4,1028.1,129.6,1030.8,129.8L1030.8,129.8z M1037,144.4c0,1.1-0.9,2.1-2.1,2.1s-2.1-0.9-2.1-2.1v-14.5h4.1V144.4z
		 M1040.1,134h-1v-4.1h1c0.1,0,0.4,0,1,0v3.2C1041.2,133.5,1040.7,134,1040.1,134L1040.1,134z M1068.8,120.5c0,1.4-0.9,2.5-2.1,2.9
		v-5.9C1067.9,118,1068.8,119.2,1068.8,120.5L1068.8,120.5z M1062.5,103.9c0-0.6,0.5-1,1-1c0.6,0,1,0.5,1,1v33.2c0,0.6-0.5,1-1,1
		c-0.6,0-1-0.5-1-1V103.9z M1060.5,108v25c-5.2-3.4-11.8-5.3-18.2-5.3c-0.3,0-0.7,0-1,0v-14.4C1048,113.5,1055,111.6,1060.5,108
		L1060.5,108z M1028.1,116.4c0-1.7,1.4-3.1,3.1-3.1h7.9v14.5c-1.9,0-6.6,0-7.9,0c-1.7,0-3.1-1.4-3.1-3.1V116.4z M1028.1,116.4"/>
	<path class="st4" d="M1044.3,117.4C1044.3,117.4,1044.3,117.4,1044.3,117.4c3.4-0.2,6.9-0.8,9.5-1.7c0.5-0.2,0.8-0.8,0.7-1.3
		c-0.2-0.5-0.8-0.8-1.3-0.7c-2.5,0.8-5.8,1.4-8.9,1.6c-0.6,0-1,0.5-1,1.1C1043.3,117,1043.7,117.4,1044.3,117.4L1044.3,117.4z
		 M1044.3,117.4"/>
	<path class="st4" d="M1078.1,119.5h-4.1c-0.6,0-1,0.5-1,1s0.5,1,1,1h4.1c0.6,0,1-0.5,1-1S1078.7,119.5,1078.1,119.5L1078.1,119.5z
		 M1078.1,119.5"/>
	<path class="st4" d="M1074.2,114.3l2.9-2.9c0.4-0.4,0.4-1.1,0-1.5c-0.4-0.4-1.1-0.4-1.5,0l-2.9,2.9c-0.4,0.4-0.4,1.1,0,1.5
		C1073.2,114.7,1073.8,114.7,1074.2,114.3L1074.2,114.3z M1074.2,114.3"/>
	<path class="st4" d="M1075.7,131.2c0.4,0.4,1.1,0.4,1.5,0c0.4-0.4,0.4-1.1,0-1.5l-2.9-2.9c-0.4-0.4-1.1-0.4-1.5,0
		c-0.4,0.4-0.4,1.1,0,1.5L1075.7,131.2z M1075.7,131.2"/>
</g>
<g>
	<g>
		<path class="st4" d="M470.5,146.6l-5.8-15.2c0-0.1-0.1-0.2-0.2-0.3l-28.5-28.5c-1.5-1.5-3.9-1.5-5.3,0l-5.3,5.3
			c-0.7,0.7-1.1,1.7-1.1,2.7c0,1,0.4,2,1.1,2.7l28.5,28.5c0.1,0.1,0.2,0.2,0.3,0.2l15.2,5.8c0.1,0,0.2,0.1,0.3,0.1
			c0.2,0,0.5-0.1,0.6-0.3C470.5,147.3,470.6,146.9,470.5,146.6L470.5,146.6z M430.7,116.1l-4.1-4.1c-0.4-0.4-0.6-0.9-0.6-1.4
			c0-0.5,0.2-1,0.6-1.4l5.3-5.3c0.8-0.8,2-0.8,2.8,0l4.1,4.1l-8,8C430.7,116,430.7,116.1,430.7,116.1L430.7,116.1z M434,119.4
			l-2.1-2.1c0,0,0.1-0.1,0.1-0.1l8-8l2,2l-8,8C434.1,119.4,434,119.4,434,119.4L434,119.4z M435.3,120.7c0,0,0.1-0.1,0.1-0.1l8-8
			l19.2,19.2l-8.1,8.1L435.3,120.7z M456.1,140.8l7.4-7.4l2.6,6.9l-3.2,3.2L456.1,140.8z M464.8,144.1l2-2l1.2,3.3L464.8,144.1z
			 M464.8,144.1"/>
	</g>
	<path class="st4" d="M451.8,124.9l-6.6-6.6c-0.4-0.4-0.9-0.4-1.3,0c-0.4,0.4-0.4,0.9,0,1.3l6.6,6.6c0.2,0.2,0.4,0.3,0.6,0.3
		c0.2,0,0.5-0.1,0.6-0.3C452.1,125.8,452.1,125.2,451.8,124.9L451.8,124.9z M451.8,124.9"/>
	<path class="st4" d="M455.4,128.5L455.4,128.5c-0.4-0.4-0.9-0.4-1.3,0c-0.4,0.4-0.4,0.9,0,1.3l0,0c0.2,0.2,0.4,0.3,0.6,0.3
		c0.2,0,0.5-0.1,0.6-0.3C455.8,129.4,455.8,128.9,455.4,128.5L455.4,128.5z M455.4,128.5"/>
	<path class="st4" d="M456.5,146h-21.9c-0.5,0-0.9,0.4-0.9,0.9c0,0.5,0.4,0.9,0.9,0.9h21.9c0.5,0,0.9-0.4,0.9-0.9
		C457.4,146.4,457,146,456.5,146L456.5,146z M456.5,146"/>
	<path class="st4" d="M461.1,146.3c-0.2-0.2-0.4-0.3-0.6-0.3c-0.2,0-0.5,0.1-0.6,0.3c-0.2,0.2-0.3,0.4-0.3,0.6
		c0,0.2,0.1,0.5,0.3,0.6c0.2,0.2,0.4,0.3,0.6,0.3c0.2,0,0.5-0.1,0.6-0.3c0.2-0.2,0.3-0.4,0.3-0.6
		C461.4,146.7,461.3,146.5,461.1,146.3L461.1,146.3z M461.1,146.3"/>
</g>
<g id="layer1" transform="translate(0 -280.067)">
	<g>
		<path id="rect4824_8_" vector-effect="none" class="st4" d="M745.5,377.6c-0.5,0-0.9,0.4-0.9,0.9v3.6c0,0.5,0.4,0.9,0.9,0.9h0.9
			v1.8h-2.7c-0.5,0-0.9,0.4-0.9,0.9v1.8c0,1.2,1.8,1.2,1.8,0v-0.9h10.9v19.9h-10.9v-3.7c3.1-0.4,5.4-3.1,5.4-6.3
			c0-3.5-2.9-6.3-6.3-6.3c-2.5,0-4.7,1.5-5.7,3.6h-3.3c-8,0-14.5,6.5-14.5,14.5c0,6.4,4.2,11.9,10,13.8l-2.4,4.3h-6.7
			c-0.5,0-0.9,0.4-0.9,0.9v3.6c0,0.5,0.4,0.9,0.9,0.9h38c0.5,0,0.9-0.4,0.9-0.9v-3.6c0-0.5-0.4-0.9-0.9-0.9h-14.5v-7.2h11.8v1.8
			h-9.1c-1.2,0-1.2,1.8,0,1.8h10c0.5,0,0.9-0.4,0.9-0.9v-3.6c0-0.5-0.4-0.9-0.9-0.9h-12.7v-2.7c0-0.5-0.4-0.9-0.9-0.9h-6.3
			c-1.7,0-3.3,0.8-4.6,3.4c-4.1-0.8-7.2-4.5-7.2-8.9c0-5,4-9.1,9.1-9.1c1.2,0,1.2-1.8,0-1.8c-6,0-10.9,4.9-10.9,10.9
			c0,5.1,3.4,9.3,8.1,10.5l-0.9,1.6c-5.2-1.6-9.1-6.4-9.1-12.1c0-7,5.6-12.7,12.7-12.7h2.8c0,0.3-0.1,0.6-0.1,0.9
			c0,3.2,2.4,5.8,5.4,6.3v4.6c0,0.5,0.4,0.9,0.9,0.9h2.7v4.5c0,0.5,0.4,0.9,0.9,0.9h5.4c0.5,0,0.9-0.4,0.9-0.9v-1.7
			c0-1.3-1.8-1.3-1.8,0v0.8h-3.6v-3.6h8.1c0.5,0,0.9-0.4,0.9-0.9v-21.7c0-0.5-0.4-0.9-0.9-0.9h-2.7V383h0.9c0.5,0,0.9-0.4,0.9-0.9
			v-3.6c0-0.5-0.4-0.9-0.9-0.9L745.5,377.6z M753.7,381.2h-7.2v-1.8h7.2V381.2z M751.9,384.8h-3.6V383h3.6V384.8z M743.7,392.1
			c2.5,0,4.5,2,4.5,4.5s-2,4.5-4.5,4.5s-4.5-2-4.5-4.5S741.2,392.1,743.7,392.1L743.7,392.1z M743.7,393.9c-1.5,0-2.7,1.2-2.7,2.7
			s1.2,2.7,2.7,2.7s2.7-1.2,2.7-2.7S745.2,393.9,743.7,393.9L743.7,393.9z M744.6,396.6c0,0.5-0.4,0.9-0.9,0.9s-0.9-0.4-0.9-0.9
			c0-0.5,0.4-0.9,0.9-0.9S744.6,396.1,744.6,396.6z M742.8,426.5h-13l4.7-8.6c0.6-1.1,1.3-2.2,2.8-2.2h5.4V426.5z M735.6,420.1
			c0,1.5,1.2,2.7,2.7,2.7c1.5,0,2.7-1.2,2.7-2.7s-1.2-2.7-2.7-2.7C736.8,417.4,735.6,418.6,735.6,420.1z M739.2,420.1
			c0,0.5-0.4,0.9-0.9,0.9c-0.5,0-0.9-0.4-0.9-0.9c0-0.5,0.4-0.9,0.9-0.9C738.8,419.2,739.2,419.6,739.2,420.1z M758.2,430.1H722
			v-1.8h36.2V430.1z"/>
	</g>
</g>
<g>
</g>
<g>
</g>
<g>
</g>
<g>
</g>
<g>
</g>
<g>
</g>
<g>
</g>
<g>
</g>
<g>
</g>
<g>
</g>
<g>
</g>
<g>
</g>
<g>
</g>
<g>
</g>
<g>
</g>
<g>
</g>
</svg>
