<?xml version="1.0" encoding="utf-8"?>
<!-- Generator: Adobe Illustrator 24.2.3, SVG Export Plug-In . SVG Version: 6.00 Build 0)  -->
<svg version="1.1" id="Layer_1" xmlns="http://www.w3.org/2000/svg" xmlns:xlink="http://www.w3.org/1999/xlink" x="0px" y="0px"
	 viewBox="0 0 600 120" style="enable-background:new 0 0 600 120;" xml:space="preserve">
<style type="text/css">
	.st0{fill:none;stroke:#5B595A;stroke-width:1.9632;stroke-miterlimit:10;}
	.st1{fill:none;stroke:#5B595A;stroke-width:1.9632;stroke-miterlimit:10;stroke-dasharray:3.8327,3.8327;}
	.st2{fill:#5B595A;}
	.st3{fill:none;stroke:#5B595A;stroke-width:1.9632;stroke-miterlimit:10;stroke-dasharray:3.8492,3.8492;}
	.st4{fill:#63C2CD;}
</style>
<g>
	<g>
		<line class="st0" x1="34.6" y1="81.9" x2="32.6" y2="81.9"/>
		<path class="st1" d="M28.8,81.9h-2.2c-8.2,0-14.9-6.7-14.9-14.9V28.9c0-8.2,6.7-14.9,14.9-14.9H577c8.2,0,14.9,6.7,14.9,14.9V67
			c0,8.2-6.7,14.9-14.9,14.9h-11.6"/>
		<line class="st0" x1="563.6" y1="81.9" x2="561.7" y2="81.9"/>
		<g>
			<polygon class="st2" points="32.8,76 43,81.9 32.8,87.8 			"/>
		</g>
	</g>
</g>
<g>
	<g>
		<line class="st3" x1="120.2" y1="81.7" x2="170.9" y2="81.7"/>
		<g>
			<polygon class="st2" points="169.2,87.5 179.4,81.7 169.2,75.8 			"/>
		</g>
	</g>
</g>
<g>
	<g>
		<line class="st3" x1="270.5" y1="81.7" x2="321.2" y2="81.7"/>
		<g>
			<polygon class="st2" points="319.5,87.5 329.7,81.7 319.5,75.8 			"/>
		</g>
	</g>
</g>
<g>
	<g>
		<line class="st3" x1="420.3" y1="81.7" x2="471" y2="81.7"/>
		<g>
			<polygon class="st2" points="469.3,87.5 479.5,81.7 469.3,75.8 			"/>
		</g>
	</g>
</g>
<g>
	<path class="st4" d="M94.6,60.6c0.6,0,1.1-0.5,1.1-1.1s-0.5-1.1-1.1-1.1s-1.1,0.5-1.1,1.1S94,60.6,94.6,60.6z"/>
	<path class="st4" d="M81.4,73c-0.6,0-1.1,0.5-1.1,1.1s0.5,1.1,1.1,1.1s1.1-0.5,1.1-1.1C82.5,73.4,82,73,81.4,73z"/>
	<path class="st4" d="M81.4,79.6c-0.6,0-1.1,0.5-1.1,1.1s0.5,1.1,1.1,1.1s1.1-0.5,1.1-1.1S82,79.6,81.4,79.6z"/>
	<path class="st4" d="M81.4,86.2c-0.6,0-1.1,0.5-1.1,1.1s0.5,1.1,1.1,1.1s1.1-0.5,1.1-1.1S82,86.2,81.4,86.2z"/>
	<path class="st4" d="M81.4,92.8c-0.6,0-1.1,0.5-1.1,1.1s0.5,1.1,1.1,1.1s1.1-0.5,1.1-1.1S82,92.8,81.4,92.8z"/>
	<path class="st4" d="M81.4,99.4c-0.6,0-1.1,0.5-1.1,1.1s0.5,1.1,1.1,1.1s1.1-0.5,1.1-1.1S82,99.4,81.4,99.4z"/>
	<path class="st4" d="M62.6,75.2h22c0.6,0,1.1-0.5,1.1-1.1S85.2,73,84.6,73h-22c-0.6,0-1.1,0.5-1.1,1.1S62,75.2,62.6,75.2z"/>
	<path class="st4" d="M62.6,81.8h22c0.6,0,1.1-0.5,1.1-1.1s-0.5-1.1-1.1-1.1h-22c-0.6,0-1.1,0.5-1.1,1.1S62,81.8,62.6,81.8z"/>
	<path class="st4" d="M62.6,88.4h22c0.6,0,1.1-0.5,1.1-1.1s-0.5-1.1-1.1-1.1h-22c-0.6,0-1.1,0.5-1.1,1.1S62,88.4,62.6,88.4z"/>
	<path class="st4" d="M92.7,96.4l-3.6,3.6l-1.4-1.4c-0.4-0.4-1.1-0.4-1.6,0c-0.4,0.4-0.4,1.1,0,1.6l2.2,2.2c0.2,0.2,0.5,0.3,0.8,0.3
		s0.6-0.1,0.8-0.3l4.4-4.4c0.4-0.4,0.4-1.1,0-1.6C93.8,96,93.1,96,92.7,96.4z"/>
	<path class="st4" d="M100.5,99.4c0-5.3-3.7-9.8-8.8-10.8V63.9c0-1.8-1.5-3.3-3.3-3.3h-7.9c-0.5-1.3-1.7-2.2-3.1-2.2h-1.2
		c-0.5-2.5-2.7-4.4-5.4-4.4s-4.9,1.9-5.4,4.4h-1.2c-1.4,0-2.7,0.9-3.1,2.2h-7.9c-1.8,0-3.3,1.5-3.3,3.3v43.2c0,1.8,1.5,3.3,3.3,3.3
		h36.4C95.5,110.4,100.5,105.5,100.5,99.4z M64.1,60.6h2.2c0.6,0,1.1-0.5,1.1-1.1c0-1.8,1.5-3.3,3.3-3.3s3.3,1.5,3.3,3.3
		c0,0.6,0.5,1.1,1.1,1.1h2.2c0.6,0,1.1,0.5,1.1,1.1v1.1H63v-1.1C63,61.1,63.5,60.6,64.1,60.6z M53.1,108.2c-0.6,0-1.1-0.5-1.1-1.1
		V63.9c0-0.6,0.5-1.1,1.1-1.1h7.7v1.1c0,0.6,0.5,1.1,1.1,1.1h17.6c0.6,0,1.1-0.5,1.1-1.1v-1.1h7.7c0.6,0,1.1,0.5,1.1,1.1v24.5
		c-3.5,0-6.7,1.6-8.8,4.4H61.9c-0.6,0-1.1,0.5-1.1,1.1s0.5,1.1,1.1,1.1h17.4c-0.6,1.4-0.9,2.9-0.9,4.4H61.9c-0.6,0-1.1,0.5-1.1,1.1
		s0.5,1.1,1.1,1.1h16.7c0.5,2.7,2.1,5,4.2,6.6H53.1z M89.4,108.2c-4.5,0-8.3-3.4-8.8-7.8c0-0.3-0.1-0.7-0.1-1c0-1.8,0.5-3.4,1.5-4.9
		l0,0l0,0c1.6-2.5,4.4-3.9,7.3-3.9c0.3,0,0.7,0,1,0.1c4.5,0.5,7.8,4.3,7.8,8.8C98.3,104.3,94.3,108.2,89.4,108.2z"/>
</g>
<g>
	<path class="st4" d="M531.5,69.6c0,0.6-0.5,1.1-1.1,1.1s-1.1-0.5-1.1-1.1s0.5-1.1,1.1-1.1S531.5,69,531.5,69.6L531.5,69.6z"/>
	<path class="st4" d="M501.1,87.9V104c0,2.5,2.1,4.6,4.6,4.6s4.6-2.1,4.6-4.6v-9.2h1.1c1.9,0,3.4-1.5,3.4-3.4v-3.5
		c6.9,0.2,13.7,2.5,19,6.4V96c0,1.9,1.5,3.4,3.4,3.4s3.4-1.5,3.4-3.4V83.2c2.6-0.5,4.6-2.8,4.6-5.6c0-2.8-2-5.1-4.6-5.6V59.3
		c0-1.9-1.5-3.4-3.4-3.4s-3.4,1.5-3.4,3.4V61c-6,4.4-14.3,6.8-22.1,6.3c-0.1,0-10.2,0-10.2,0c-3.2,0-5.7,2.6-5.7,5.7v9.2
		C495.8,85.2,498.1,87.7,501.1,87.9L501.1,87.9z M507.9,104c0,1.3-1,2.3-2.3,2.3s-2.3-1-2.3-2.3V88h4.6L507.9,104L507.9,104z
		 M511.4,92.5h-1.1v-4.6h1.1c0.1,0,0.5,0,1.1-0.1v3.5C512.5,92,512,92.5,511.4,92.5L511.4,92.5z M543,77.6c0,1.5-1,2.8-2.3,3.2v-6.5
		C542,74.9,543,76.1,543,77.6L543,77.6z M536.1,59.3c0-0.6,0.5-1.1,1.1-1.1s1.1,0.5,1.1,1.1v36.6c0,0.6-0.5,1.1-1.1,1.1
		s-1.1-0.5-1.1-1.1V59.3z M533.8,63.8v27.7c-5.7-3.7-13-5.9-20.1-5.9c-0.4,0-0.8,0-1.1,0V69.7C520,69.9,527.8,67.8,533.8,63.8
		L533.8,63.8z M498.1,73c0-1.9,1.5-3.4,3.4-3.4h8.7v16c-2.1,0-7.3,0-8.7,0c-1.9,0-3.4-1.5-3.4-3.4V73z"/>
	<path class="st4" d="M516,74.2L516,74.2c3.7-0.2,7.6-0.9,10.5-1.8c0.6-0.2,0.9-0.8,0.7-1.4s-0.8-0.9-1.4-0.7
		c-2.7,0.9-6.4,1.5-9.9,1.7c-0.6,0-1.1,0.6-1.1,1.2C514.9,73.7,515.4,74.2,516,74.2L516,74.2z"/>
	<path class="st4" d="M553.3,76.5h-4.6c-0.6,0-1.1,0.5-1.1,1.1s0.5,1.1,1.1,1.1h4.6c0.6,0,1.1-0.5,1.1-1.1S553.9,76.5,553.3,76.5
		L553.3,76.5z"/>
	<path class="st4" d="M549,70.7l3.2-3.2c0.4-0.4,0.4-1.2,0-1.6s-1.2-0.4-1.6,0l-3.2,3.2c-0.4,0.4-0.4,1.2,0,1.6
		C547.8,71.2,548.6,71.2,549,70.7L549,70.7z"/>
	<path class="st4" d="M550.6,89.4c0.4,0.4,1.2,0.4,1.6,0c0.4-0.4,0.4-1.2,0-1.6l-3.2-3.2c-0.4-0.4-1.2-0.4-1.6,0
		c-0.4,0.4-0.4,1.2,0,1.6L550.6,89.4z"/>
</g>
<g>
	<g>
		<path class="st4" d="M250.6,106.4l-6.4-16.7c-0.1-0.1-0.1-0.3-0.2-0.4l-31.5-31.5c-1.6-1.6-4.3-1.6-5.9,0l-5.9,5.9
			c-0.8,0.8-1.2,1.8-1.2,2.9s0.4,2.2,1.2,2.9l31.5,31.5c0.1,0.1,0.2,0.2,0.4,0.2l16.7,6.4c0.1,0,0.2,0.1,0.4,0.1
			c0.3,0,0.5-0.1,0.7-0.3C250.7,107.2,250.8,106.8,250.6,106.4L250.6,106.4z M206.7,72.7l-4.6-4.6c-0.4-0.4-0.6-1-0.6-1.5
			c0-0.6,0.2-1.1,0.6-1.5l5.9-5.9c0.8-0.8,2.2-0.8,3.1,0l4.6,4.6l-8.8,8.8C206.8,72.7,206.8,72.7,206.7,72.7L206.7,72.7z
			 M210.4,76.4l-2.3-2.3l0.1-0.1l8.8-8.8l2.3,2.3l-8.8,8.8L210.4,76.4L210.4,76.4z M211.8,77.8l0.1-0.1l8.8-8.8l21.2,21.2L233,99
			L211.8,77.8z M234.8,100l8.2-8.2l2.9,7.6l-3.5,3.5L234.8,100z M244.4,103.7l2.2-2.2l1.4,3.6L244.4,103.7z"/>
	</g>
	<path class="st4" d="M230,82.4l-7.3-7.3c-0.4-0.4-1-0.4-1.4,0s-0.4,1,0,1.4l7.3,7.3c0.2,0.2,0.5,0.3,0.7,0.3c0.3,0,0.5-0.1,0.7-0.3
		C230.4,83.4,230.4,82.8,230,82.4L230,82.4z"/>
	<path class="st4" d="M234,86.4L234,86.4c-0.4-0.4-1-0.4-1.4,0s-0.4,1,0,1.4l0,0c0.2,0.2,0.5,0.3,0.7,0.3c0.3,0,0.5-0.1,0.7-0.3
		C234.4,87.5,234.4,86.8,234,86.4L234,86.4z"/>
	<path class="st4" d="M235.2,105.8H211c-0.6,0-1,0.4-1,1s0.4,1,1,1h24.2c0.6,0,1-0.4,1-1C236.2,106.2,235.8,105.8,235.2,105.8
		L235.2,105.8z"/>
	<path class="st4" d="M240.3,106.1c-0.2-0.2-0.4-0.3-0.7-0.3s-0.5,0.1-0.7,0.3c-0.2,0.2-0.3,0.4-0.3,0.7c0,0.3,0.1,0.5,0.3,0.7
		s0.4,0.3,0.7,0.3s0.5-0.1,0.7-0.3c0.2-0.2,0.3-0.4,0.3-0.7S240.5,106.3,240.3,106.1L240.3,106.1z"/>
</g>
<g id="layer1" transform="translate(0 -280.067)">
	<g>
		<path id="rect4824_8_" vector-effect="none" class="st4" d="M379.8,335.6c-0.5,0-0.9,0.4-0.9,0.9v3.6c0,0.5,0.4,0.9,0.9,0.9h0.9
			v1.8H378c-0.5,0-0.9,0.4-0.9,0.9v1.8c0,1.2,1.8,1.2,1.8,0v-0.9h10.9v19.9h-10.9v-3.7c3.1-0.4,5.4-3.1,5.4-6.3
			c0-3.5-2.9-6.3-6.3-6.3c-2.5,0-4.7,1.5-5.7,3.6h-3.3c-8,0-14.5,6.5-14.5,14.5c0,6.4,4.2,11.9,10,13.8l-2.4,4.3h-6.7
			c-0.5,0-0.9,0.4-0.9,0.9v3.6c0,0.5,0.4,0.9,0.9,0.9h38c0.5,0,0.9-0.4,0.9-0.9v-3.6c0-0.5-0.4-0.9-0.9-0.9h-14.5v-7.2h11.8v1.8
			h-9.1c-1.2,0-1.2,1.8,0,1.8h10c0.5,0,0.9-0.4,0.9-0.9v-3.6c0-0.5-0.4-0.9-0.9-0.9h-12.7v-2.7c0-0.5-0.4-0.9-0.9-0.9h-6.3
			c-1.7,0-3.3,0.8-4.6,3.4c-4.1-0.8-7.2-4.5-7.2-8.9c0-5,4-9.1,9.1-9.1c1.2,0,1.2-1.8,0-1.8c-6,0-10.9,4.9-10.9,10.9
			c0,5.1,3.4,9.3,8.1,10.5l-0.9,1.6c-5.2-1.6-9.1-6.4-9.1-12.1c0-7,5.6-12.7,12.7-12.7h2.8c0,0.3-0.1,0.6-0.1,0.9
			c0,3.2,2.4,5.8,5.4,6.3v4.6c0,0.5,0.4,0.9,0.9,0.9h2.7v4.5c0,0.5,0.4,0.9,0.9,0.9h5.4c0.5,0,0.9-0.4,0.9-0.9v-1.7
			c0-1.3-1.8-1.3-1.8,0v0.8h-3.6v-3.6h8.1c0.5,0,0.9-0.4,0.9-0.9v-21.7c0-0.5-0.4-0.9-0.9-0.9H388V341h0.9c0.5,0,0.9-0.4,0.9-0.9
			v-3.6c0-0.5-0.4-0.9-0.9-0.9L379.8,335.6z M388,339.2h-7.2v-1.8h7.2V339.2z M386.1,342.9h-3.6V341h3.6V342.9z M378,350.1
			c2.5,0,4.5,2,4.5,4.5c0,2.5-2,4.5-4.5,4.5c-2.5,0-4.5-2-4.5-4.5C373.5,352.1,375.5,350.1,378,350.1L378,350.1z M378,351.9
			c-1.5,0-2.7,1.2-2.7,2.7s1.2,2.7,2.7,2.7c1.5,0,2.7-1.2,2.7-2.7S379.5,351.9,378,351.9L378,351.9z M378.9,354.6
			c0,0.5-0.4,0.9-0.9,0.9c-0.5,0-0.9-0.4-0.9-0.9s0.4-0.9,0.9-0.9C378.5,353.7,378.9,354.1,378.9,354.6z M377.1,384.5h-13l4.7-8.6
			c0.6-1.1,1.3-2.2,2.8-2.2h5.4V384.5z M369.8,378.2c0,1.5,1.2,2.7,2.7,2.7s2.7-1.2,2.7-2.7s-1.2-2.7-2.7-2.7
			C371.1,375.5,369.8,376.7,369.8,378.2z M373.5,378.2c0,0.5-0.4,0.9-0.9,0.9s-0.9-0.4-0.9-0.9c0-0.5,0.4-0.9,0.9-0.9
			S373.5,377.7,373.5,378.2z M392.5,388.1h-36.2v-1.8h36.2V388.1z"/>
	</g>
</g>
</svg>
